<svg width="211" height="61" viewBox="0 0 211 61" fill="none" xmlns="http://www.w3.org/2000/svg">
<path d="M38.3973 0H1.92492C0.861816 0 0 0.86773 0 1.93813V59.0618C0 60.1322 0.861816 61 1.92492 61H38.3973C39.4601 61 40.322 60.1322 40.322 59.0618V1.93813C40.322 0.86773 39.4601 0 38.3973 0Z" fill="#F08910"/>
<path d="M7.19312 12.9569C11.5495 7.95856 24.5513 8.53662 29.1778 9.59068C33.4328 14.793 31.8119 43.5588 23.7069 53.3515C22.8154 54.657 16.5138 53.8957 14.0823 53.3515C18.3374 39.3767 14.9941 22.6475 7.19312 12.9569Z" fill="#171717"/>
<path d="M65.1824 39.7349V53.7628H59.0948V41.4111C59.0948 40.6319 58.9035 39.9334 58.5213 39.3158C58.1536 38.6834 57.6539 38.1837 57.0215 37.8159C56.4039 37.4482 55.7129 37.2645 54.9482 37.2645C54.1834 37.2645 53.4852 37.4482 52.8528 37.8159C52.2204 38.1837 51.7207 38.6834 51.353 39.3158C50.9852 39.9334 50.8015 40.6319 50.8015 41.4111V53.7628H44.714L44.6919 31.7063H50.7795L50.8015 33.3385C51.5367 32.6327 52.3969 32.0812 53.3822 31.6842C54.3819 31.2872 55.4334 31.0887 56.5362 31.0887C58.1391 31.0887 59.5873 31.4784 60.8814 32.2577C62.1899 33.037 63.2342 34.081 64.0134 35.3897C64.7926 36.6838 65.1824 38.132 65.1824 39.7349ZM76.3409 27.4273V31.7063H82.1859V37.7939H76.3409V53.7628H70.2533V37.7939H68.0477V31.7063H70.2533V27.4273C70.2533 26.0892 70.5842 24.8761 71.2459 23.788C71.9075 22.6852 72.7898 21.8029 73.8926 21.1412C75.0103 20.4795 76.2379 20.1487 77.5761 20.1487C78.5614 20.1487 79.5319 20.3545 80.4875 20.7663C81.4432 21.1633 82.2962 21.7882 83.0461 22.6411L78.6789 26.9421C78.5758 26.7068 78.4214 26.5304 78.2157 26.4127C78.01 26.2951 77.7966 26.2363 77.5761 26.2363C77.238 26.2363 76.9437 26.3539 76.6938 26.5892C76.4584 26.8097 76.3409 27.0891 76.3409 27.4273ZM95.1496 54.3363C93.1204 54.3363 91.2676 53.8141 89.5913 52.7702C87.9299 51.7263 86.5989 50.3292 85.5991 48.5795C84.6138 46.815 84.1213 44.8668 84.1213 42.7345C84.1213 41.1172 84.4081 39.6098 84.9815 38.213C85.555 36.8013 86.3418 35.5662 87.3416 34.5075C88.3562 33.434 89.5324 32.5959 90.8706 31.993C92.2088 31.3902 93.6349 31.0887 95.1496 31.0887C97.1788 31.0887 99.0243 31.6107 100.686 32.6547C102.362 33.6987 103.693 35.103 104.678 36.8675C105.678 38.632 106.178 40.5878 106.178 42.7345C106.178 44.3374 105.891 45.8373 105.318 47.2341C104.744 48.6309 103.95 49.866 102.936 50.9396C101.936 51.9983 100.767 52.8292 99.4285 53.4319C98.1052 54.0347 96.6787 54.3363 95.1496 54.3363ZM95.1496 48.2487C96.0908 48.2487 96.9362 47.9988 97.6861 47.4987C98.436 46.9842 99.0243 46.3077 99.4506 45.4695C99.8769 44.6314 100.09 43.7198 100.09 42.7345C100.09 41.7199 99.8624 40.7936 99.4065 39.9554C98.9654 39.1025 98.3698 38.4263 97.6199 37.9262C96.87 37.4262 96.0467 37.1763 95.1496 37.1763C94.2232 37.1763 93.3851 37.4337 92.6351 37.9483C91.8852 38.4628 91.2897 39.1393 90.8486 39.9775C90.4222 40.8156 90.2089 41.7348 90.2089 42.7345C90.2089 43.7784 90.4295 44.7196 90.8706 45.5578C91.3266 46.3811 91.9293 47.0356 92.6793 47.5208C93.4292 48.006 94.2525 48.2487 95.1496 48.2487ZM109.548 53.7628L109.526 31.7063H115.614L115.636 33.3385C116.371 32.6327 117.231 32.0812 118.216 31.6842C119.216 31.2872 120.267 31.0887 121.37 31.0887C122.179 31.0887 122.988 31.2063 123.796 31.4416L121.392 37.5954C120.863 37.3748 120.326 37.2645 119.782 37.2645C119.017 37.2645 118.319 37.4482 117.687 37.8159C117.054 38.1837 116.555 38.6834 116.187 39.3158C115.819 39.9334 115.636 40.6319 115.636 41.4111V53.7628H109.548ZM126.284 53.7628V31.7063H132.371V33.3385C133.121 32.6327 133.989 32.0812 134.974 31.6842C135.959 31.2872 137.003 31.0887 138.106 31.0887C139.606 31.0887 140.981 31.4343 142.231 32.1254C143.495 32.8165 144.51 33.7355 145.274 34.8824C146.054 33.7355 147.068 32.8165 148.318 32.1254C149.568 31.4343 150.936 31.0887 152.421 31.0887C154.024 31.0887 155.472 31.4784 156.766 32.2577C158.074 33.037 159.119 34.081 159.898 35.3897C160.677 36.6838 161.067 38.132 161.067 39.7349V53.7628H154.979V41.4111C154.979 40.6464 154.788 39.9554 154.406 39.3378C154.038 38.7054 153.546 38.2057 152.928 37.838C152.31 37.4558 151.619 37.2645 150.855 37.2645C150.09 37.2645 149.392 37.4482 148.759 37.8159C148.142 38.1837 147.642 38.6834 147.259 39.3158C146.892 39.9334 146.708 40.6319 146.708 41.4111V53.7628H140.62V41.4111C140.62 40.6319 140.437 39.9334 140.069 39.3158C139.701 38.6834 139.202 38.1837 138.569 37.8159C137.952 37.4482 137.261 37.2645 136.496 37.2645C135.746 37.2645 135.055 37.4558 134.423 37.838C133.805 38.2057 133.305 38.7054 132.923 39.3378C132.555 39.9554 132.371 40.6464 132.371 41.4111V53.7628H126.284ZM174.76 54.3363C172.731 54.3363 170.878 53.8141 169.202 52.7702C167.54 51.7263 166.209 50.322 165.209 48.5574C164.224 46.7929 163.731 44.8447 163.731 42.7125C163.731 41.1096 164.018 39.6098 164.592 38.213C165.165 36.8013 165.952 35.5662 166.952 34.5075C167.966 33.434 169.143 32.5959 170.481 31.993C171.819 31.3902 173.245 31.0887 174.76 31.0887C176.509 31.0887 178.105 31.4637 179.546 32.2136C181.002 32.9635 182.23 33.9854 183.229 35.2794C184.244 36.5735 184.965 38.0365 185.391 39.6687C185.832 41.3009 185.906 42.9992 185.612 44.7637H170.304C170.496 45.4106 170.79 45.9989 171.187 46.5283C171.598 47.0428 172.098 47.4546 172.686 47.7634C173.289 48.0722 173.981 48.2338 174.76 48.2487C175.524 48.2635 176.23 48.087 176.877 47.7193C177.524 47.3516 178.075 46.8591 178.531 46.2415L184.751 47.6752C183.854 49.631 182.516 51.2335 180.737 52.4835C178.958 53.7187 176.965 54.3363 174.76 54.3363ZM170.084 40.2642H179.458C179.267 39.5291 178.943 38.8674 178.487 38.2791C178.031 37.6908 177.48 37.2276 176.833 36.8896C176.201 36.5515 175.51 36.3823 174.76 36.3823C174.025 36.3823 173.333 36.5515 172.686 36.8896C172.054 37.2276 171.51 37.6908 171.054 38.2791C170.613 38.8526 170.29 39.5143 170.084 40.2642ZM199.013 54.3363C196.984 54.3363 195.131 53.8141 193.455 52.7702C191.794 51.7263 190.463 50.322 189.463 48.5574C188.478 46.7929 187.985 44.8447 187.985 42.7125C187.985 41.1096 188.272 39.6098 188.845 38.213C189.419 36.8013 190.206 35.5662 191.205 34.5075C192.22 33.434 193.396 32.5959 194.734 31.993C196.073 31.3902 197.499 31.0887 199.013 31.0887C200.763 31.0887 202.359 31.4637 203.8 32.2136C205.255 32.9635 206.483 33.9854 207.483 35.2794C208.498 36.5735 209.218 38.0365 209.645 39.6687C210.086 41.3009 210.159 42.9992 209.865 44.7637H194.558C194.749 45.4106 195.043 45.9989 195.44 46.5283C195.852 47.0428 196.352 47.4546 196.94 47.7634C197.543 48.0722 198.234 48.2338 199.013 48.2487C199.778 48.2635 200.484 48.087 201.131 47.7193C201.778 47.3516 202.329 46.8591 202.785 46.2415L209.005 47.6752C208.108 49.631 206.77 51.2335 204.991 52.4835C203.211 53.7187 201.219 54.3363 199.013 54.3363ZM194.337 40.2642H203.711C203.52 39.5291 203.197 38.8674 202.741 38.2791C202.285 37.6908 201.733 37.2276 201.087 36.8896C200.454 36.5515 199.763 36.3823 199.013 36.3823C198.278 36.3823 197.587 36.5515 196.94 36.8896C196.308 37.2276 195.764 37.6908 195.308 38.2791C194.867 38.8526 194.543 39.5143 194.337 40.2642Z" fill="#F5F5F5"/>
</svg>
