<svg width="1920" height="760" viewBox="0 0 1920 760" fill="none" xmlns="http://www.w3.org/2000/svg">
<path opacity="0.57" d="M0 758C320 316 640 183.333 960 360C1280 536.667 1600 669.333 1920 758" stroke="url(#paint0_linear_168_480)" stroke-width="3" stroke-linecap="round" stroke-dasharray="29 27"/>
<path opacity="0.11" d="M0 737C320 309 640 183.333 960 360C1280 536.667 1600 662.333 1920 737" stroke="url(#paint1_linear_168_480)" stroke-width="3" stroke-linecap="round" stroke-dasharray="35 5"/>
<path opacity="0.68" d="M0 716C320 302 640 183.333 960 360C1280 536.667 1600 655.333 1920 716" stroke="url(#paint2_linear_168_480)" stroke-width="3" stroke-linecap="round" stroke-dasharray="40 25"/>
<path opacity="0.2" d="M0 695C320 295 640 183.333 960 360C1280 536.667 1600 648.333 1920 695" stroke="url(#paint3_linear_168_480)" stroke-width="3" stroke-linecap="round" stroke-dasharray="11 21"/>
<path opacity="0.49" d="M0 674C320 288 640 183.333 960 360C1280 536.667 1600 641.333 1920 674" stroke="url(#paint4_linear_168_480)" stroke-width="3" stroke-linecap="round" stroke-dasharray="33 41"/>
<path opacity="0.96" d="M0 653C320 281 640 183.333 960 360C1280 536.667 1600 634.333 1920 653" stroke="url(#paint5_linear_168_480)" stroke-width="3" stroke-linecap="round" stroke-dasharray="37 49"/>
<path opacity="0.4" d="M0 632C320 274 640 183.333 960 360C1280 536.667 1600 627.333 1920 632" stroke="url(#paint6_linear_168_480)" stroke-width="3" stroke-linecap="round" stroke-dasharray="14 6"/>
<path opacity="0.78" d="M0 611C320 267 640 183.333 960 360C1280 536.667 1600 620.333 1920 611" stroke="url(#paint7_linear_168_480)" stroke-width="3" stroke-linecap="round" stroke-dasharray="10 39"/>
<path opacity="0.28" d="M0 590C320 260 640 183.333 960 360C1280 536.667 1600 613.333 1920 590" stroke="url(#paint8_linear_168_480)" stroke-width="3" stroke-linecap="round" stroke-dasharray="3 8"/>
<path opacity="0.28" d="M0 569C320 253 640 183.333 960 360C1280 536.667 1600 606.333 1920 569" stroke="url(#paint9_linear_168_480)" stroke-width="3" stroke-linecap="round" stroke-dasharray="12 47"/>
<path opacity="0.88" d="M0 548C320 246 640 183.333 960 360C1280 536.667 1600 599.333 1920 548" stroke="url(#paint10_linear_168_480)" stroke-width="3" stroke-linecap="round" stroke-dasharray="3 20"/>
<path opacity="0.61" d="M0 527C320 239 640 183.333 960 360C1280 536.667 1600 592.333 1920 527" stroke="url(#paint11_linear_168_480)" stroke-width="3" stroke-linecap="round" stroke-dasharray="51 15"/>
<path opacity="0.18" d="M0 506C320 232 640 183.333 960 360C1280 536.667 1600 585.333 1920 506" stroke="url(#paint12_linear_168_480)" stroke-width="3" stroke-linecap="round" stroke-dasharray="3 10"/>
<path opacity="0.78" d="M0 485C320 225 640 183.333 960 360C1280 536.667 1600 578.333 1920 485" stroke="url(#paint13_linear_168_480)" stroke-width="3" stroke-linecap="round" stroke-dasharray="37 15"/>
<path opacity="0.68" d="M0 464C320 218 640 183.333 960 360C1280 536.667 1600 571.333 1920 464" stroke="url(#paint14_linear_168_480)" stroke-width="3" stroke-linecap="round" stroke-dasharray="17 39"/>
<path opacity="0.68" d="M0 443C320 211 640 183.333 960 360C1280 536.667 1600 564.333 1920 443" stroke="url(#paint15_linear_168_480)" stroke-width="3" stroke-linecap="round" stroke-dasharray="8 4"/>
<path opacity="0.85" d="M0 422C320 204 640 183.333 960 360C1280 536.667 1600 557.333 1920 422" stroke="url(#paint16_linear_168_480)" stroke-width="3" stroke-linecap="round"/>
<path opacity="0.72" d="M0 401C320 197 640 183.333 960 360C1280 536.667 1600 550.333 1920 401" stroke="url(#paint17_linear_168_480)" stroke-width="3" stroke-linecap="round" stroke-dasharray="11 40"/>
<path opacity="0.49" d="M0 380C320 190 640 183.333 960 360C1280 536.667 1600 543.333 1920 380" stroke="url(#paint18_linear_168_480)" stroke-width="3" stroke-linecap="round" stroke-dasharray="1 18"/>
<path opacity="0.42" d="M0 359C320 183 640 183.333 960 360C1280 536.667 1600 536.333 1920 359" stroke="url(#paint19_linear_168_480)" stroke-width="3" stroke-linecap="round" stroke-dasharray="47 42"/>
<path opacity="0.7" d="M0 338C320 176 640 183.333 960 360C1280 536.667 1600 529.333 1920 338" stroke="url(#paint20_linear_168_480)" stroke-width="3" stroke-linecap="round" stroke-dasharray="39 6"/>
<path opacity="0.49" d="M0 317C320 169 640 183.333 960 360C1280 536.667 1600 522.333 1920 317" stroke="url(#paint21_linear_168_480)" stroke-width="3" stroke-linecap="round" stroke-dasharray="41 2"/>
<path opacity="0.33" d="M0 296C320 162 640 183.333 960 360C1280 536.667 1600 515.333 1920 296" stroke="url(#paint22_linear_168_480)" stroke-width="3" stroke-linecap="round" stroke-dasharray="35 8"/>
<path opacity="0.61" d="M0 275C320 155 640 183.333 960 360C1280 536.667 1600 508.333 1920 275" stroke="url(#paint23_linear_168_480)" stroke-width="3" stroke-linecap="round" stroke-dasharray="22 22"/>
<path opacity="0.62" d="M0 254C320 148 640 183.333 960 360C1280 536.667 1600 501.333 1920 254" stroke="url(#paint24_linear_168_480)" stroke-width="3" stroke-linecap="round" stroke-dasharray="46 39"/>
<path opacity="0.97" d="M0 233C320 141 640 183.333 960 360C1280 536.667 1600 494.333 1920 233" stroke="url(#paint25_linear_168_480)" stroke-width="3" stroke-linecap="round" stroke-dasharray="51 32"/>
<path opacity="0.49" d="M0 212C320 134 640 183.333 960 360C1280 536.667 1600 487.333 1920 212" stroke="url(#paint26_linear_168_480)" stroke-width="3" stroke-linecap="round" stroke-dasharray="12 47"/>
<path opacity="0.85" d="M0 191C320 127 640 183.333 960 360C1280 536.667 1600 480.333 1920 191" stroke="url(#paint27_linear_168_480)" stroke-width="3" stroke-linecap="round" stroke-dasharray="48 19"/>
<path opacity="0.58" d="M0 170C320 120 640 183.333 960 360C1280 536.667 1600 473.333 1920 170" stroke="url(#paint28_linear_168_480)" stroke-width="3" stroke-linecap="round" stroke-dasharray="45 8"/>
<path opacity="0.76" d="M0 149C320 113 640 183.333 960 360C1280 536.667 1600 466.333 1920 149" stroke="url(#paint29_linear_168_480)" stroke-width="3" stroke-linecap="round" stroke-dasharray="28 9"/>
<path opacity="0.94" d="M0 128C320 106 640 183.333 960 360C1280 536.667 1600 459.333 1920 128" stroke="url(#paint30_linear_168_480)" stroke-width="3" stroke-linecap="round" stroke-dasharray="20 5"/>
<path opacity="0.98" d="M0 107C320 99.0001 640 183.333 960 360C1280 536.667 1600 452.333 1920 107" stroke="url(#paint31_linear_168_480)" stroke-width="3" stroke-linecap="round" stroke-dasharray="32 17"/>
<path opacity="0.92" d="M0 86C320 92 640 183.333 960 360C1280 536.667 1600 445.333 1920 86" stroke="url(#paint32_linear_168_480)" stroke-width="3" stroke-linecap="round" stroke-dasharray="35 17"/>
<path opacity="0.41" d="M0 65C320 85 640 183.333 960 360C1280 536.667 1600 438.333 1920 65" stroke="url(#paint33_linear_168_480)" stroke-width="3" stroke-linecap="round" stroke-dasharray="7 43"/>
<path opacity="0.5" d="M0 44C320 78 640 183.333 960 360C1280 536.667 1600 431.333 1920 44" stroke="url(#paint34_linear_168_480)" stroke-width="3" stroke-linecap="round" stroke-dasharray="18 30"/>
<path opacity="0.65" d="M0 23C320 71 640 183.333 960 360C1280 536.667 1600 424.333 1920 23" stroke="url(#paint35_linear_168_480)" stroke-width="3" stroke-linecap="round" stroke-dasharray="12 16"/>
<path opacity="0.34" d="M0 2C320 64 640 183.333 960 360C1280 536.667 1600 417.333 1920 2" stroke="url(#paint36_linear_168_480)" stroke-width="3" stroke-linecap="round" stroke-dasharray="35 11"/>
<defs>
<linearGradient id="paint0_linear_168_480" x1="96000" y1="284.326" x2="96000" y2="47651.7" gradientUnits="userSpaceOnUse">
<stop stop-color="#FF8000"/>
<stop offset="1" stop-color="#FFB366"/>
</linearGradient>
<linearGradient id="paint1_linear_168_480" x1="96000" y1="282.574" x2="96000" y2="45725.1" gradientUnits="userSpaceOnUse">
<stop stop-color="#FF8000"/>
<stop offset="1" stop-color="#FFB366"/>
</linearGradient>
<linearGradient id="paint2_linear_168_480" x1="96000" y1="280.739" x2="96000" y2="43806.8" gradientUnits="userSpaceOnUse">
<stop stop-color="#FF8000"/>
<stop offset="1" stop-color="#FFB366"/>
</linearGradient>
<linearGradient id="paint3_linear_168_480" x1="96000" y1="278.815" x2="96000" y2="41897.3" gradientUnits="userSpaceOnUse">
<stop stop-color="#FF8000"/>
<stop offset="1" stop-color="#FFB366"/>
</linearGradient>
<linearGradient id="paint4_linear_168_480" x1="96000" y1="276.795" x2="96000" y2="39997.3" gradientUnits="userSpaceOnUse">
<stop stop-color="#FF8000"/>
<stop offset="1" stop-color="#FFB366"/>
</linearGradient>
<linearGradient id="paint5_linear_168_480" x1="96000" y1="274.672" x2="96000" y2="38107.5" gradientUnits="userSpaceOnUse">
<stop stop-color="#FF8000"/>
<stop offset="1" stop-color="#FFB366"/>
</linearGradient>
<linearGradient id="paint6_linear_168_480" x1="96000" y1="272.438" x2="96000" y2="36228.7" gradientUnits="userSpaceOnUse">
<stop stop-color="#FF8000"/>
<stop offset="1" stop-color="#FFB366"/>
</linearGradient>
<linearGradient id="paint7_linear_168_480" x1="96000" y1="270.083" x2="96000" y2="34432" gradientUnits="userSpaceOnUse">
<stop stop-color="#FF8000"/>
<stop offset="1" stop-color="#FFB366"/>
</linearGradient>
<linearGradient id="paint8_linear_168_480" x1="96000" y1="267.599" x2="96000" y2="32916.1" gradientUnits="userSpaceOnUse">
<stop stop-color="#FF8000"/>
<stop offset="1" stop-color="#FFB366"/>
</linearGradient>
<linearGradient id="paint9_linear_168_480" x1="96000" y1="264.973" x2="96000" y2="31644.6" gradientUnits="userSpaceOnUse">
<stop stop-color="#FF8000"/>
<stop offset="1" stop-color="#FFB366"/>
</linearGradient>
<linearGradient id="paint10_linear_168_480" x1="96000" y1="262.194" x2="96000" y2="30576.5" gradientUnits="userSpaceOnUse">
<stop stop-color="#FF8000"/>
<stop offset="1" stop-color="#FFB366"/>
</linearGradient>
<linearGradient id="paint11_linear_168_480" x1="96000" y1="259.247" x2="96000" y2="29680.3" gradientUnits="userSpaceOnUse">
<stop stop-color="#FF8000"/>
<stop offset="1" stop-color="#FFB366"/>
</linearGradient>
<linearGradient id="paint12_linear_168_480" x1="96000" y1="256.117" x2="96000" y2="28932.2" gradientUnits="userSpaceOnUse">
<stop stop-color="#FF8000"/>
<stop offset="1" stop-color="#FFB366"/>
</linearGradient>
<linearGradient id="paint13_linear_168_480" x1="96000" y1="252.786" x2="96000" y2="28313.7" gradientUnits="userSpaceOnUse">
<stop stop-color="#FF8000"/>
<stop offset="1" stop-color="#FFB366"/>
</linearGradient>
<linearGradient id="paint14_linear_168_480" x1="96000" y1="249.235" x2="96000" y2="27810.5" gradientUnits="userSpaceOnUse">
<stop stop-color="#FF8000"/>
<stop offset="1" stop-color="#FFB366"/>
</linearGradient>
<linearGradient id="paint15_linear_168_480" x1="96000" y1="245.44" x2="96000" y2="27411.7" gradientUnits="userSpaceOnUse">
<stop stop-color="#FF8000"/>
<stop offset="1" stop-color="#FFB366"/>
</linearGradient>
<linearGradient id="paint16_linear_168_480" x1="96000" y1="241.377" x2="96000" y2="27109.1" gradientUnits="userSpaceOnUse">
<stop stop-color="#FF8000"/>
<stop offset="1" stop-color="#FFB366"/>
</linearGradient>
<linearGradient id="paint17_linear_168_480" x1="96000" y1="237.014" x2="96000" y2="26896.6" gradientUnits="userSpaceOnUse">
<stop stop-color="#FF8000"/>
<stop offset="1" stop-color="#FFB366"/>
</linearGradient>
<linearGradient id="paint18_linear_168_480" x1="96000" y1="232.318" x2="96000" y2="26770.1" gradientUnits="userSpaceOnUse">
<stop stop-color="#FF8000"/>
<stop offset="1" stop-color="#FFB366"/>
</linearGradient>
<linearGradient id="paint19_linear_168_480" x1="96000" y1="227.25" x2="96000" y2="26727.3" gradientUnits="userSpaceOnUse">
<stop stop-color="#FF8000"/>
<stop offset="1" stop-color="#FFB366"/>
</linearGradient>
<linearGradient id="paint20_linear_168_480" x1="96000" y1="221.762" x2="96000" y2="26767.5" gradientUnits="userSpaceOnUse">
<stop stop-color="#FF8000"/>
<stop offset="1" stop-color="#FFB366"/>
</linearGradient>
<linearGradient id="paint21_linear_168_480" x1="96000" y1="215.801" x2="96000" y2="26891.4" gradientUnits="userSpaceOnUse">
<stop stop-color="#FF8000"/>
<stop offset="1" stop-color="#FFB366"/>
</linearGradient>
<linearGradient id="paint22_linear_168_480" x1="96000" y1="209.302" x2="96000" y2="27101.4" gradientUnits="userSpaceOnUse">
<stop stop-color="#FF8000"/>
<stop offset="1" stop-color="#FFB366"/>
</linearGradient>
<linearGradient id="paint23_linear_168_480" x1="96000" y1="202.191" x2="96000" y2="27401.8" gradientUnits="userSpaceOnUse">
<stop stop-color="#FF8000"/>
<stop offset="1" stop-color="#FFB366"/>
</linearGradient>
<linearGradient id="paint24_linear_168_480" x1="96000" y1="194.375" x2="96000" y2="27798.5" gradientUnits="userSpaceOnUse">
<stop stop-color="#FF8000"/>
<stop offset="1" stop-color="#FFB366"/>
</linearGradient>
<linearGradient id="paint25_linear_168_480" x1="96000" y1="185.744" x2="96000" y2="28300" gradientUnits="userSpaceOnUse">
<stop stop-color="#FF8000"/>
<stop offset="1" stop-color="#FFB366"/>
</linearGradient>
<linearGradient id="paint26_linear_168_480" x1="96000" y1="176.165" x2="96000" y2="28917.3" gradientUnits="userSpaceOnUse">
<stop stop-color="#FF8000"/>
<stop offset="1" stop-color="#FFB366"/>
</linearGradient>
<linearGradient id="paint27_linear_168_480" x1="96000" y1="165.471" x2="96000" y2="29664.9" gradientUnits="userSpaceOnUse">
<stop stop-color="#FF8000"/>
<stop offset="1" stop-color="#FFB366"/>
</linearGradient>
<linearGradient id="paint28_linear_168_480" x1="96000" y1="153.456" x2="96000" y2="30561.3" gradientUnits="userSpaceOnUse">
<stop stop-color="#FF8000"/>
<stop offset="1" stop-color="#FFB366"/>
</linearGradient>
<linearGradient id="paint29_linear_168_480" x1="96000" y1="139.859" x2="96000" y2="31631" gradientUnits="userSpaceOnUse">
<stop stop-color="#FF8000"/>
<stop offset="1" stop-color="#FFB366"/>
</linearGradient>
<linearGradient id="paint30_linear_168_480" x1="96000" y1="124.346" x2="96000" y2="32905.7" gradientUnits="userSpaceOnUse">
<stop stop-color="#FF8000"/>
<stop offset="1" stop-color="#FFB366"/>
</linearGradient>
<linearGradient id="paint31_linear_168_480" x1="96000" y1="106.48" x2="96000" y2="34427.2" gradientUnits="userSpaceOnUse">
<stop stop-color="#FF8000"/>
<stop offset="1" stop-color="#FFB366"/>
</linearGradient>
<linearGradient id="paint32_linear_168_480" x1="96000" y1="86" x2="96000" y2="36220.5" gradientUnits="userSpaceOnUse">
<stop stop-color="#FF8000"/>
<stop offset="1" stop-color="#FFB366"/>
</linearGradient>
<linearGradient id="paint33_linear_168_480" x1="96000" y1="65" x2="96000" y2="38077.1" gradientUnits="userSpaceOnUse">
<stop stop-color="#FF8000"/>
<stop offset="1" stop-color="#FFB366"/>
</linearGradient>
<linearGradient id="paint34_linear_168_480" x1="96000" y1="44" x2="96000" y2="39944.8" gradientUnits="userSpaceOnUse">
<stop stop-color="#FF8000"/>
<stop offset="1" stop-color="#FFB366"/>
</linearGradient>
<linearGradient id="paint35_linear_168_480" x1="96000" y1="23" x2="96000" y2="41822.8" gradientUnits="userSpaceOnUse">
<stop stop-color="#FF8000"/>
<stop offset="1" stop-color="#FFB366"/>
</linearGradient>
<linearGradient id="paint36_linear_168_480" x1="96000" y1="2" x2="96000" y2="43710.2" gradientUnits="userSpaceOnUse">
<stop stop-color="#FF8000"/>
<stop offset="1" stop-color="#FFB366"/>
</linearGradient>
</defs>
</svg>
