<svg width="423" height="510" viewBox="0 0 423 510" fill="none" xmlns="http://www.w3.org/2000/svg" preserveAspectRatio="xMidYMin meet">
  <path d="M423 509.993L388 463C388 463 386.356 460.977 385.383 459.622C383.901 457.56 382.595 455.089 381.888 454.14C381.18 453.19 370.257 438.793 370.257 438.793C361.046 427.342 351.996 417.59 341.784 412.08C336.751 409.364 331.491 408.033 326.344 407.504L324.138 407.032H321.932L319.726 406.56H316.518L314.513 406.106C306.472 405.884 296.071 403.887 288.445 397.923C281.592 392.558 275.841 385.003 270.198 374.374C250.222 336.743 241.016 283.114 235.284 226.193C232.364 197.195 230.712 167.54 227.259 138.834C222.238 97.1094 212.256 63.7238 200.898 30.2251L193.158 7.55894C192.595 5.91564 191.079 0.981019 190.357 0.286869C190.002 -0.0531232 189.379 0.00354148 188.988 0.00354148H0.499146V51.0025L12.5303 47.6167C24.8643 44.8071 38.65 44.1885 49.0249 62.7606C51.3529 66.9255 53.3661 72.016 55.1568 77.4464C61.433 96.4859 66.7107 126.353 71.824 148.278C75.0283 162.024 78.8562 176.172 84.3163 185.512C95.8502 205.241 110.729 202.276 123.418 215.063C136.512 228.257 145.192 261.789 150.247 291.831C153.219 309.496 155.282 327.795 157.33 346.135C158.904 360.254 160.398 374.43 162.529 388.162C166.979 416.839 173.335 440.582 180.937 465.133L191.995 499.604C192.591 501.384 194.869 508.708 195.462 509.511C195.896 510.097 196.519 509.993 197.008 509.993H423Z" fill="#FB923C"/>
  <path d="M382 509.99C382 509.99 320.333 501.955 291.5 478C284.196 471.932 283.727 460.76 274.231 460.88C272.746 460.899 270.456 461.353 270.456 461.353H258.188L252.997 460.484C241.967 458.123 231.643 450.841 224.017 433.964C216.779 417.947 211.352 397.368 205.501 379.188C201.344 366.268 196.123 352.201 189.531 343.97C183.736 336.741 177.809 334.262 171.128 332.836L165.701 331.948H162.634L159.803 331.495H146.591L141.636 331.022L135.03 329.733C127.112 327.467 120.937 323.514 114.503 313.603C110.561 307.53 107.003 299.635 104.243 291.357C100.697 280.708 98.3442 270.051 96.5063 257.83C95.1544 248.844 93.7482 233.615 93.7411 224.303V212.498L93.9558 207.776C94.5197 191.376 96.1949 175.292 97.653 159.138C98.3537 151.365 99.6348 135.452 99.6395 127.972V115.695C99.6254 97.2925 94.994 78.763 89.6949 64.2236C85.4244 52.5081 80.392 41.9353 75.1023 32.0708L61.654 7.83228C60.7079 6.21732 57.8672 0.919124 56.9353 0.276918C56.4564 -0.0489072 55.7934 0.00303592 55.2838 0.00303592H-166.495V47.2241C-166.495 48.2157 -166.554 49.8732 -166.262 50.6948C-165.912 51.6723 -164.056 53.0181 -163.428 53.5611L-157.058 59.171L-126.15 86.8236L-95.9506 115.345L-85.8054 125.488L-61.9759 148.627L-44.0449 165.423L-40.2699 169.158C-27.7772 180.973 -13.0406 196.173 -1.57657 211.397C11.1545 228.303 24.834 250.057 31.6289 278.135C37.1946 301.132 38.169 327.207 39.0255 352.272C39.9055 378.05 41.0616 404.055 45.1385 428.77C48.7106 450.426 25.1757 444.154 22.5 458.5C19.8149 472.896 62 495.5 33 494.5C4 493.5 18 510.5 18 510.5C18.4223 511.086 64.2186 509.99 64.7211 509.99H286.5H382Z" fill="#F97316"/>
</svg>