<svg width="2920" height="978" viewBox="0 0 2920 978" fill="none" xmlns="http://www.w3.org/2000/svg">
<g clip-path="url(#clip0_509_1310)">
<rect width="2920" height="978" fill="#737373"/>
<path d="M819.57 -231L815.601 -168.535L813.615 -138.31C813.525 -71.0894 815.143 0.926731 860.13 55.1302C880.431 79.6125 903.232 92.0651 930.697 106.009C993.742 138.007 1083.18 159.749 1133.03 210.366C1168.53 246.394 1177.92 294.633 1183.04 343.275L1186.69 383.575L1188.67 419.845L1190.48 448.055C1193.18 487.932 1196.03 534.277 1221.45 566.94C1250.51 604.278 1304.01 610.424 1347.43 613.467L1371.24 615.38H1401.01L1424.82 617.315C1490.46 617.406 1556.31 624.488 1617.31 651.006C1673.03 675.226 1695.95 690.943 1746.3 722.941C1754.37 728.079 1781.62 744.985 1784.79 752.683C1786.22 756.169 1785.98 762.576 1785.98 766.425V978H982.292C959.947 977.949 958 978 933.5 978H909.5C855.742 978 921.5 978 878.5 978C854 978 843.5 978 836 978H796H751H701.5C726.25 978 663 978 641.5 978C615 978 562 978 519.5 978C437 978 94 978 0 978C0 892 0 231.5 0 158V16.5C0 4.5 0.0398861 2.76014 0 -19.4249V-231L819.57 -231Z" fill="#262626"/>
<path d="M1589.66 -236L1584.99 -173.535L1582.66 -143.31C1582.55 -76.0894 1584.46 -4.07327 1637.35 50.1302C1661.22 74.6125 1688.03 87.0651 1720.32 101.009C1794.45 133.007 1899.62 154.749 1958.23 205.366C1999.97 241.394 2011.01 289.633 2017.03 338.275L2021.32 378.575L2023.66 414.845L2025.78 443.055C2028.95 482.932 2032.31 529.277 2062.2 561.94C2096.36 599.278 2159.27 605.424 2210.32 608.467L2238.32 610.38H2273.32L2301.32 612.315C2378.51 612.406 2455.93 619.488 2527.65 646.006C2593.17 670.226 2644 691 2708.5 709C2718 714.138 2919.5 731 2919.5 731C2919.5 731 2919.5 778.5 2919.5 841L2919.5 973H1780.99C1754.72 972.949 1750.19 965.404 1729.66 952.104L1678.32 918.071C1608.49 868.986 1542.45 816.031 1521.73 737.245C1516.44 717.115 1517.04 697.288 1517.32 676.795L1521.64 642.54L1528.48 487L1510.48 450.5C1510.76 427.851 1478.48 429 1456.98 414.5C1422.98 405 1415.79 401.929 1376.5 386.635C1283.96 350.566 1215.44 262.41 1113.66 237.243C965.38 200.55 856.042 139.676 733.333 60.9504L656.333 11.5828C635.73 -1.7562 626.047 -2.23985 626 -24.4249V-236L1589.66 -236Z" fill="#525252"/>
<path d="M1180.51 -231L1176.43 -168.535L1174.39 -138.31C1174.3 -71.0894 1175.96 0.926716 1222.21 55.1302C1243.08 79.6125 1266.52 92.0651 1294.75 106.009C1359.56 138.007 1451.51 159.749 1502.75 210.366C1539.25 246.394 1548.89 294.633 1554.16 343.275L1557.91 383.575L1559.95 419.845L1561.81 448.055C1564.58 487.932 1567.52 534.277 1593.65 566.94C1623.52 604.278 1678.51 610.424 1723.15 613.467L1747.63 615.38H1778.23L1802.71 617.315C1870.19 617.406 1937.88 624.488 2000.59 651.006C2057.87 675.226 2081.43 690.943 2133.19 722.941C2141.49 728.079 2169.5 744.985 2172.76 752.683C2174.23 756.169 2173.99 762.576 2173.99 766.425V978H1347.79C1324.82 977.949 1320.86 970.403 1302.91 957.104L1258.03 923.071C1196.98 873.986 1139.24 821.031 1121.13 742.245C1116.5 722.115 1117.03 702.288 1117.27 681.795L1121.05 647.54L1150.26 478.28L1151.95 460.145C1152.2 437.496 1147.94 411.744 1137.02 391.635C1118.68 357.864 1082.27 335.799 1047.92 320.505C967.01 284.437 853.342 267.41 764.358 242.243C634.717 205.55 539.123 144.676 431.84 65.9504L364.521 16.5828C346.508 3.24379 338.042 2.76014 338.001 -19.4249V-231L1180.51 -231Z" fill="#404040"/>
</g>
<defs>
<clipPath id="clip0_509_1310">
<rect width="2920" height="978" fill="white"/>
</clipPath>
</defs>
</svg>
