<svg width="2333" height="1072" viewBox="0 0 2333 1072" fill="none" xmlns="http://www.w3.org/2000/svg">
<path d="M819.57 0.000255707L815.601 51.5635L813.615 76.5134C813.525 132.002 815.143 191.45 860.13 236.194C880.431 256.403 903.232 266.682 930.697 278.193C993.742 304.606 1083.18 322.554 1133.03 364.337C1168.53 394.077 1177.92 433.897 1183.04 474.05L1186.69 507.317L1188.67 537.257L1190.48 560.543C1193.18 593.461 1196.03 631.718 1221.45 658.68C1250.51 689.502 1304.01 694.575 1347.43 697.087L1371.24 698.666H1401.01L1424.82 700.263C1490.46 700.339 1556.31 706.185 1617.31 728.074C1673.03 748.068 1695.95 761.041 1746.3 787.455C1754.37 791.697 1781.62 805.652 1784.79 812.006C1786.22 814.884 1785.98 820.173 1785.98 823.35V998H982.292C959.947 997.958 956.097 991.729 938.634 980.751L894.977 952.658C835.583 912.139 779.423 868.426 761.802 803.39C757.297 786.773 757.813 770.406 758.051 753.49L761.722 725.213L790.139 585.493L791.787 570.523C792.026 551.827 787.878 530.57 777.261 513.97C759.421 486.093 723.999 467.879 690.581 455.254C611.879 425.48 501.307 411.425 414.746 390.65C288.635 360.361 195.645 310.112 91.2838 245.125L25.7977 204.374C8.27513 193.363 0.0398861 192.963 0 174.65V0L819.57 0.000255707Z" fill="#262626"/>
<path d="M1514.29 0.000187553L1510.93 37.8201L1509.25 56.1201C1509.17 96.8193 1510.54 140.422 1548.65 173.24C1565.85 188.063 1585.17 195.603 1608.43 204.045C1661.84 223.419 1737.61 236.582 1779.84 267.229C1809.91 289.043 1817.87 318.249 1822.2 347.7L1825.3 372.1L1826.98 394.06L1828.51 411.14C1830.79 435.284 1833.21 463.344 1854.75 483.12C1879.36 505.727 1924.68 509.448 1961.46 511.29L1981.64 512.448H2006.85L2027.03 513.62C2082.64 513.675 2138.42 517.963 2190.09 534.018C2237.3 548.683 2256.72 558.199 2299.37 577.572C2306.21 580.683 2329.29 590.919 2331.98 595.58C2333.19 597.69 2332.99 601.57 2332.99 603.9V732H1652.14C1633.21 731.969 1629.95 727.401 1615.16 719.349L1578.17 698.743C1527.86 669.024 1480.28 636.962 1465.36 589.26C1461.54 577.072 1461.98 565.067 1462.18 552.66L1465.29 531.92L1489.36 429.44L1490.76 418.46C1490.96 404.747 1487.45 389.155 1478.45 376.98C1463.34 356.533 1433.33 343.174 1405.02 333.914C1338.35 312.076 1244.68 301.767 1171.35 286.529C1064.52 264.313 985.739 227.457 897.331 179.791L841.854 149.901C827.01 141.825 820.034 141.532 820 128.1V0L1514.29 0.000187553Z" fill="#525252"/>
<path d="M1202.6 0.000274667L1198.52 55.3868L1196.48 82.1868C1196.39 141.79 1198.05 205.646 1244.25 253.707C1265.09 275.415 1288.51 286.456 1316.71 298.82C1381.45 327.192 1473.29 346.471 1524.48 391.352C1560.94 423.297 1570.57 466.07 1575.83 509.2L1579.58 544.934L1581.62 577.094L1583.47 602.107C1586.24 637.465 1589.18 678.558 1615.28 707.52C1645.12 740.627 1700.05 746.076 1744.64 748.774L1769.09 750.471H1799.66L1824.11 752.187C1891.52 752.268 1959.13 758.547 2021.77 782.06C2079 803.535 2102.53 817.471 2154.23 845.844C2162.52 850.4 2190.5 865.39 2193.76 872.215C2195.23 875.306 2194.98 880.987 2194.98 884.4V1072H1369.69C1346.75 1071.95 1342.79 1065.26 1324.86 1053.47L1280.03 1023.3C1219.04 979.772 1161.37 932.819 1143.28 862.96C1138.65 845.111 1139.18 827.53 1139.42 809.36L1143.19 778.987L1172.37 628.907L1174.07 612.827C1174.31 592.744 1170.05 569.911 1159.15 552.08C1140.83 522.135 1104.46 502.571 1070.14 489.011C989.323 457.029 875.78 441.932 786.892 419.616C657.393 387.081 561.903 333.106 454.737 263.301L387.491 219.528C369.497 207.7 361.041 207.271 361 187.6V0L1202.6 0.000274667Z" fill="#404040"/>
</svg>
