<svg width="2920" height="978" viewBox="0 0 2920 978" fill="none" xmlns="http://www.w3.org/2000/svg">
<g clip-path="url(#clip0_509_1310)">
<rect width="2920" height="978" fill="#737373"/>
<path d="M417.723 -231L413.754 -168.535L411.769 -138.31C411.679 -71.0894 413.297 0.926731 458.284 55.1302C478.584 79.6125 501.386 92.0651 528.85 106.009C591.895 138.007 681.334 159.749 731.182 210.366C766.684 246.394 776.07 294.633 781.19 343.275L784.841 383.575L786.826 419.845L788.631 448.055C791.33 487.932 794.188 534.277 819.608 566.94C848.66 604.278 902.16 610.424 945.58 613.467L969.393 615.38H999.159L1022.97 617.315C1088.62 617.406 1154.46 624.488 1215.46 651.006C1271.18 675.226 1294.1 690.943 1344.45 722.941C1352.53 728.079 1379.77 744.985 1382.95 752.683C1384.38 756.169 1384.14 762.576 1384.14 766.425V978H580.445C558.1 977.949 556.153 978 531.653 978H507.653C453.895 978 519.653 978 476.653 978C452.153 978 441.653 978 434.153 978H394.153H349.153H299.653C324.403 978 261.153 978 239.653 978C213.153 978 160.153 978 117.653 978C35.1533 978 -307.847 978 -401.847 978C-401.847 892 -401.847 231.5 -401.847 158V16.5C-401.847 4.5 -401.807 2.76014 -401.847 -19.4249V-231L417.723 -231Z" fill="#262626"/>
<path d="M1200.66 -231L1195.99 -168.535L1193.66 -138.31C1193.55 -71.0894 1195.46 0.926727 1248.35 55.1302C1272.22 79.6125 1299.03 92.0651 1331.32 106.009C1405.45 138.007 1510.62 159.749 1569.23 210.366C1610.97 246.394 1622.01 294.633 1628.03 343.275L1632.32 383.575L1634.66 419.845L1636.78 448.055C1639.95 487.932 1643.31 534.277 1673.2 566.94C1707.36 604.278 1770.27 610.424 1821.32 613.467L1849.32 615.38H1884.32L1912.32 617.315C1989.51 617.406 2066.93 624.488 2138.65 651.006C2204.17 675.226 2255 696 2319.5 714C2329 719.138 2530.5 736 2530.5 736C2530.5 736 2530.5 783.5 2530.5 846L2530.5 978H1391.99C1365.72 977.949 1361.19 970.404 1340.66 957.104L1289.32 923.071C1219.49 873.986 1153.45 821.031 1132.73 742.245C1127.44 722.115 1128.04 702.288 1128.32 681.795L1132.64 647.54L1139.48 492L1121.48 455.5C1121.76 432.851 1089.48 434 1067.98 419.5C1033.98 410 1026.79 406.929 987.5 391.635C894.96 355.566 826.442 267.41 724.662 242.243C576.38 205.55 467.042 144.676 344.333 65.9504L267.333 16.5828C246.73 3.2438 237.047 2.76015 237 -19.4249V-231L1200.66 -231Z" fill="#525252"/>
<path d="M779.514 -231L775.434 -168.535L773.393 -138.31C773.301 -71.0894 774.964 0.926716 821.21 55.1302C842.079 79.6125 865.519 92.0651 893.752 106.009C958.562 138.007 1050.5 159.749 1101.75 210.366C1138.24 246.394 1147.89 294.633 1153.16 343.275L1156.91 383.575L1158.95 419.845L1160.81 448.055C1163.58 487.932 1166.52 534.277 1192.65 566.94C1222.52 604.278 1277.51 610.424 1322.15 613.467L1346.63 615.38H1377.23L1401.71 617.315C1469.19 617.406 1536.88 624.488 1599.59 651.006C1656.87 675.226 1680.43 690.943 1732.18 722.941C1740.49 728.079 1768.5 744.985 1771.76 752.683C1773.23 756.169 1772.98 762.576 1772.98 766.425V978H946.791C923.821 977.949 919.864 970.403 901.912 957.104L857.032 923.071C795.975 873.986 738.244 821.031 720.129 742.245C715.498 722.115 716.028 702.288 716.273 681.795L720.047 647.54L749.26 478.28L750.954 460.145C751.199 437.496 746.935 411.744 736.021 391.635C717.682 357.864 681.268 335.799 646.914 320.505C566.009 284.437 452.341 267.41 363.357 242.243C233.716 205.55 138.122 144.676 30.8394 65.9504L-36.48 16.5828C-54.4931 3.24379 -62.9589 2.76014 -62.9999 -19.4249V-231L779.514 -231Z" fill="#404040"/>
</g>
<defs>
<clipPath id="clip0_509_1310">
<rect width="2920" height="978" fill="white"/>
</clipPath>
</defs>
</svg>
