<svg width="1513" height="500" viewBox="0 0 1513 500" fill="none" xmlns="http://www.w3.org/2000/svg">
<path d="M694.294 0.000187553L690.932 37.8201L689.25 56.1201C689.174 96.8193 690.544 140.422 728.655 173.24C745.852 188.063 765.168 195.603 788.435 204.045C841.843 223.419 917.61 236.583 959.839 267.229C989.914 289.043 997.866 318.249 1002.2 347.7L1005.3 372.1L1006.98 394.06L1008.51 411.14C1010.79 435.284 1013.21 463.344 1034.75 483.12C1059.36 505.727 1104.68 509.448 1141.46 511.29L1161.64 512.448H1186.85L1207.03 513.62C1262.64 513.675 1318.42 517.963 1370.09 534.018C1417.3 548.683 1436.72 558.199 1479.37 577.572C1486.21 580.683 1509.29 590.919 1511.98 595.58C1513.19 597.69 1512.99 601.57 1512.99 603.9V732H832.143C813.214 731.969 809.952 727.401 795.159 719.349L758.175 698.743C707.859 669.024 660.284 636.962 645.356 589.26C641.54 577.072 641.977 565.067 642.179 552.66L645.289 531.92L669.362 429.44L670.758 418.46C670.96 404.747 667.446 389.155 658.452 376.98C643.339 356.533 613.332 343.174 585.022 333.914C518.35 312.076 424.679 301.767 351.349 286.529C244.516 264.313 165.74 227.457 77.3306 179.791L21.8544 149.901C7.01013 141.825 0.0338135 141.532 0 128.1V0L694.294 0.000187553Z" fill="#525252"/>
</svg>
