<svg width="881" height="500" viewBox="0 0 881 500" fill="none" xmlns="http://www.w3.org/2000/svg">
<path d="M-85.4304 -266L-89.3994 -214.437L-91.3846 -189.487C-91.4746 -133.998 -89.8565 -74.5501 -44.8696 -29.8065C-24.5689 -9.59698 -1.7677 0.682373 25.6967 12.1926C88.7419 38.6064 178.18 56.5537 228.029 98.3368C263.53 128.077 272.917 167.897 278.037 208.05L281.688 241.317L283.673 271.257L285.478 294.543C288.177 327.461 291.034 365.718 316.455 392.68C345.507 423.502 399.007 428.575 442.426 431.087L466.24 432.666H496.006L519.819 434.263C585.464 434.339 651.307 440.185 712.309 462.074C768.031 482.068 790.952 495.042 841.297 521.455C849.373 525.697 876.619 539.652 879.794 546.006C881.224 548.884 880.985 554.173 880.985 557.35V732H77.2915C54.947 731.958 51.097 725.729 33.6342 714.751L-10.0233 686.658C-69.4172 646.139 -125.577 602.426 -143.198 537.39C-147.703 520.773 -147.187 504.406 -146.949 487.49L-143.278 459.213L-114.861 319.493L-113.213 304.523C-112.974 285.827 -117.122 264.57 -127.739 247.97C-145.579 220.093 -181.001 201.879 -214.419 189.254C-293.121 159.48 -403.693 145.425 -490.254 124.65C-616.365 94.361 -709.355 44.1117 -813.716 -20.8747L-879.202 -61.6264C-896.725 -72.6375 -904.96 -73.0367 -905 -91.3499V-266L-85.4304 -266Z" fill="#262626"/>
</svg>
