<svg width="1306" height="500" viewBox="0 0 1306 500" fill="none" xmlns="http://www.w3.org/2000/svg">
<path d="M313.596 -218L309.52 -162.613L307.482 -135.813C307.389 -76.21 309.051 -12.3545 355.247 35.7069C376.093 57.4149 399.507 68.4564 427.71 80.8201C492.449 109.192 584.291 128.471 635.48 173.352C671.935 205.297 681.574 248.07 686.832 291.2L690.581 326.934L692.62 359.094L694.473 384.107C697.244 419.465 700.179 460.558 726.282 489.52C756.115 522.627 811.053 528.076 855.639 530.774L880.092 532.471H910.659L935.112 534.187C1002.52 534.268 1070.13 540.547 1132.77 564.06C1190 585.535 1213.53 599.471 1265.23 627.844C1273.52 632.4 1301.5 647.39 1304.76 654.215C1306.23 657.306 1305.98 662.987 1305.98 666.4V854H480.691C457.746 853.955 453.793 847.264 435.861 835.472L391.03 805.295C330.04 761.772 272.371 714.819 254.276 644.96C249.65 627.111 250.18 609.53 250.424 591.36L254.194 560.987L283.375 410.907L285.067 394.827C285.312 374.744 281.052 351.911 270.15 334.08C251.831 304.135 215.457 284.571 181.141 271.011C100.323 239.029 -13.2205 223.932 -102.108 201.616C-231.607 169.081 -327.097 115.106 -434.263 45.301L-501.509 1.52751C-519.503 -10.3 -527.959 -10.7288 -528 -30.3999V-218L313.596 -218Z" fill="#404040"/>
</svg>
