<svg width="626" height="200" viewBox="0 0 626 200" fill="none" xmlns="http://www.w3.org/2000/svg">
<rect width="120" height="200" rx="10" fill="#F08910"/>
<path d="M21 40.6451C33.5661 25.1629 71.0696 26.9534 84.415 30.2183C96.6889 46.3325 92.0131 135.434 68.6343 165.767C66.0626 169.811 47.8856 167.452 40.872 165.767C53.1458 122.48 43.5021 70.6617 21 40.6451Z" fill="black" stroke="black"/>
<path d="M196.136 124.296V165H178.472V129.16C178.472 126.899 177.917 124.872 176.808 123.08C175.741 121.245 174.291 119.795 172.456 118.728C170.664 117.661 168.659 117.128 166.44 117.128C164.221 117.128 162.195 117.661 160.36 118.728C158.525 119.795 157.075 121.245 156.008 123.08C154.941 124.872 154.408 126.899 154.408 129.16V165H136.744L136.68 101H154.344L154.408 105.736C156.541 103.688 159.037 102.088 161.896 100.936C164.797 99.784 167.848 99.208 171.048 99.208C175.699 99.208 179.901 100.339 183.656 102.6C187.453 104.861 190.483 107.891 192.744 111.688C195.005 115.443 196.136 119.645 196.136 124.296ZM228.514 88.584V101H245.474V118.664H228.514V165H210.85V118.664H204.45V101H210.85V88.584C210.85 84.7013 211.81 81.1813 213.73 78.024C215.65 74.824 218.21 72.264 221.41 70.344C224.653 68.424 228.215 67.464 232.098 67.464C234.957 67.464 237.773 68.0613 240.546 69.256C243.319 70.408 245.794 72.2213 247.97 74.696L235.298 87.176C234.999 86.4933 234.551 85.9813 233.954 85.64C233.357 85.2987 232.738 85.128 232.098 85.128C231.117 85.128 230.263 85.4693 229.538 86.152C228.855 86.792 228.514 87.6027 228.514 88.584ZM283.09 166.664C277.202 166.664 271.826 165.149 266.962 162.12C262.141 159.091 258.279 155.037 255.378 149.96C252.519 144.84 251.09 139.187 251.09 133C251.09 128.307 251.922 123.933 253.586 119.88C255.25 115.784 257.533 112.2 260.434 109.128C263.378 106.013 266.791 103.581 270.674 101.832C274.557 100.083 278.695 99.208 283.09 99.208C288.978 99.208 294.333 100.723 299.154 103.752C304.018 106.781 307.879 110.856 310.738 115.976C313.639 121.096 315.09 126.771 315.09 133C315.09 137.651 314.258 142.003 312.594 146.056C310.93 150.109 308.626 153.693 305.682 156.808C302.781 159.88 299.389 162.291 295.506 164.04C291.666 165.789 287.527 166.664 283.09 166.664ZM283.09 149C285.821 149 288.274 148.275 290.45 146.824C292.626 145.331 294.333 143.368 295.57 140.936C296.807 138.504 297.426 135.859 297.426 133C297.426 130.056 296.765 127.368 295.442 124.936C294.162 122.461 292.434 120.499 290.258 119.048C288.082 117.597 285.693 116.872 283.09 116.872C280.402 116.872 277.97 117.619 275.794 119.112C273.618 120.605 271.89 122.568 270.61 125C269.373 127.432 268.754 130.099 268.754 133C268.754 136.029 269.394 138.76 270.674 141.192C271.997 143.581 273.746 145.48 275.922 146.888C278.098 148.296 280.487 149 283.09 149ZM324.869 165L324.805 101H342.469L342.533 105.736C344.666 103.688 347.162 102.088 350.021 100.936C352.922 99.784 355.973 99.208 359.173 99.208C361.52 99.208 363.866 99.5493 366.213 100.232L359.237 118.088C357.701 117.448 356.144 117.128 354.565 117.128C352.346 117.128 350.32 117.661 348.485 118.728C346.65 119.795 345.2 121.245 344.133 123.08C343.066 124.872 342.533 126.899 342.533 129.16V165H324.869ZM373.43 165V101H391.094V105.736C393.27 103.688 395.787 102.088 398.646 100.936C401.505 99.784 404.534 99.208 407.734 99.208C412.086 99.208 416.075 100.211 419.702 102.216C423.371 104.221 426.315 106.888 428.534 110.216C430.795 106.888 433.739 104.221 437.366 102.216C440.993 100.211 444.961 99.208 449.27 99.208C453.921 99.208 458.123 100.339 461.878 102.6C465.675 104.861 468.705 107.891 470.966 111.688C473.227 115.443 474.358 119.645 474.358 124.296V165H456.694V129.16C456.694 126.941 456.139 124.936 455.03 123.144C453.963 121.309 452.534 119.859 450.742 118.792C448.95 117.683 446.945 117.128 444.726 117.128C442.507 117.128 440.481 117.661 438.646 118.728C436.854 119.795 435.403 121.245 434.294 123.08C433.227 124.872 432.694 126.899 432.694 129.16V165H415.03V129.16C415.03 126.899 414.497 124.872 413.43 123.08C412.363 121.245 410.913 119.795 409.078 118.728C407.286 117.661 405.281 117.128 403.062 117.128C400.886 117.128 398.881 117.683 397.046 118.792C395.254 119.859 393.803 121.309 392.694 123.144C391.627 124.936 391.094 126.941 391.094 129.16V165H373.43ZM514.09 166.664C508.202 166.664 502.826 165.149 497.962 162.12C493.141 159.091 489.279 155.016 486.378 149.896C483.519 144.776 482.09 139.123 482.09 132.936C482.09 128.285 482.922 123.933 484.586 119.88C486.25 115.784 488.533 112.2 491.434 109.128C494.378 106.013 497.791 103.581 501.674 101.832C505.557 100.083 509.695 99.208 514.09 99.208C519.167 99.208 523.797 100.296 527.978 102.472C532.202 104.648 535.765 107.613 538.666 111.368C541.61 115.123 543.701 119.368 544.938 124.104C546.218 128.84 546.431 133.768 545.578 138.888H501.162C501.717 140.765 502.57 142.472 503.722 144.008C504.917 145.501 506.367 146.696 508.074 147.592C509.823 148.488 511.829 148.957 514.09 149C516.309 149.043 518.357 148.531 520.234 147.464C522.111 146.397 523.711 144.968 525.034 143.176L543.082 147.336C540.479 153.011 536.597 157.661 531.434 161.288C526.271 164.872 520.49 166.664 514.09 166.664ZM500.522 125.832H527.722C527.167 123.699 526.229 121.779 524.906 120.072C523.583 118.365 521.983 117.021 520.106 116.04C518.271 115.059 516.266 114.568 514.09 114.568C511.957 114.568 509.951 115.059 508.074 116.04C506.239 117.021 504.661 118.365 503.338 120.072C502.058 121.736 501.119 123.656 500.522 125.832ZM584.465 166.664C578.577 166.664 573.201 165.149 568.337 162.12C563.516 159.091 559.654 155.016 556.753 149.896C553.894 144.776 552.465 139.123 552.465 132.936C552.465 128.285 553.297 123.933 554.961 119.88C556.625 115.784 558.908 112.2 561.809 109.128C564.753 106.013 568.166 103.581 572.049 101.832C575.932 100.083 580.07 99.208 584.465 99.208C589.542 99.208 594.172 100.296 598.353 102.472C602.577 104.648 606.14 107.613 609.041 111.368C611.985 115.123 614.076 119.368 615.313 124.104C616.593 128.84 616.806 133.768 615.953 138.888H571.537C572.092 140.765 572.945 142.472 574.097 144.008C575.292 145.501 576.742 146.696 578.449 147.592C580.198 148.488 582.204 148.957 584.465 149C586.684 149.043 588.732 148.531 590.609 147.464C592.486 146.397 594.086 144.968 595.409 143.176L613.457 147.336C610.854 153.011 606.972 157.661 601.809 161.288C596.646 164.872 590.865 166.664 584.465 166.664ZM570.897 125.832H598.097C597.542 123.699 596.604 121.779 595.281 120.072C593.958 118.365 592.358 117.021 590.481 116.04C588.646 115.059 586.641 114.568 584.465 114.568C582.332 114.568 580.326 115.059 578.449 116.04C576.614 117.021 575.036 118.365 573.713 120.072C572.433 121.736 571.494 123.656 570.897 125.832Z" fill="black"/>
<path d="M196.136 165V165.5H196.636V165H196.136ZM178.472 165H177.972V165.5H178.472V165ZM176.808 123.08L176.376 123.331L176.383 123.343L176.808 123.08ZM172.456 118.728L172.2 119.158L172.205 119.16L172.456 118.728ZM160.36 118.728L160.109 118.296L160.109 118.296L160.36 118.728ZM156.008 123.08L156.438 123.336L156.44 123.331L156.008 123.08ZM154.408 165V165.5H154.908V165H154.408ZM136.744 165L136.244 165.001L136.245 165.5H136.744V165ZM136.68 101V100.5H136.18L136.18 101.001L136.68 101ZM154.344 101L154.844 100.993L154.837 100.5H154.344V101ZM154.408 105.736L153.908 105.743L153.924 106.894L154.754 106.097L154.408 105.736ZM161.896 100.936L161.711 100.471L161.709 100.472L161.896 100.936ZM183.656 102.6L183.398 103.028L183.4 103.03L183.656 102.6ZM192.744 111.688L192.314 111.944L192.316 111.946L192.744 111.688ZM195.636 124.296V165H196.636V124.296H195.636ZM196.136 164.5H178.472V165.5H196.136V164.5ZM178.972 165V129.16H177.972V165H178.972ZM178.972 129.16C178.972 126.813 178.395 124.694 177.233 122.817L176.383 123.343C177.44 125.05 177.972 126.985 177.972 129.16H178.972ZM177.24 122.829C176.13 120.919 174.617 119.406 172.707 118.296L172.205 119.16C173.964 120.183 175.353 121.572 176.376 123.331L177.24 122.829ZM172.712 118.298C170.837 117.183 168.743 116.628 166.44 116.628V117.628C168.575 117.628 170.491 118.14 172.2 119.158L172.712 118.298ZM166.44 116.628C164.137 116.628 162.023 117.183 160.109 118.296L160.611 119.16C162.366 118.14 164.305 117.628 166.44 117.628V116.628ZM160.109 118.296C158.199 119.406 156.686 120.919 155.576 122.829L156.44 123.331C157.463 121.572 158.852 120.183 160.611 119.16L160.109 118.296ZM155.578 122.824C154.462 124.7 153.908 126.816 153.908 129.16H154.908C154.908 126.981 155.421 125.044 156.438 123.336L155.578 122.824ZM153.908 129.16V165H154.908V129.16H153.908ZM154.408 164.5H136.744V165.5H154.408V164.5ZM137.244 164.999L137.18 100.999L136.18 101.001L136.244 165.001L137.244 164.999ZM136.68 101.5H154.344V100.5H136.68V101.5ZM153.844 101.007L153.908 105.743L154.908 105.729L154.844 100.993L153.844 101.007ZM154.754 106.097C156.84 104.095 159.281 102.529 162.083 101.4L161.709 100.472C158.794 101.647 156.243 103.281 154.062 105.375L154.754 106.097ZM162.081 101.401C164.922 100.273 167.91 99.708 171.048 99.708V98.708C167.786 98.708 164.673 99.2954 161.711 100.471L162.081 101.401ZM171.048 99.708C175.614 99.708 179.726 100.817 183.398 103.028L183.914 102.172C180.077 99.8606 175.784 98.708 171.048 98.708V99.708ZM183.4 103.03C187.126 105.248 190.096 108.218 192.314 111.944L193.174 111.432C190.87 107.563 187.781 104.474 183.912 102.17L183.4 103.03ZM192.316 111.946C194.527 115.618 195.636 119.73 195.636 124.296H196.636C196.636 119.56 195.483 115.267 193.172 111.43L192.316 111.946ZM228.514 101H228.014V101.5H228.514V101ZM245.474 101H245.974V100.5H245.474V101ZM245.474 118.664V119.164H245.974V118.664H245.474ZM228.514 118.664V118.164H228.014V118.664H228.514ZM228.514 165V165.5H229.014V165H228.514ZM210.85 165H210.35V165.5H210.85V165ZM210.85 118.664H211.35V118.164H210.85V118.664ZM204.45 118.664H203.95V119.164H204.45V118.664ZM204.45 101V100.5H203.95V101H204.45ZM210.85 101V101.5H211.35V101H210.85ZM213.73 78.024L214.157 78.2838L214.159 78.2812L213.73 78.024ZM221.41 70.344L221.155 69.9137L221.153 69.9152L221.41 70.344ZM240.546 69.256L240.348 69.7152L240.354 69.7177L240.546 69.256ZM247.97 74.696L248.321 75.0522L248.658 74.7207L248.345 74.3658L247.97 74.696ZM235.298 87.176L234.84 87.3764L235.131 88.0421L235.649 87.5322L235.298 87.176ZM233.954 85.64L233.706 86.0741L233.706 86.0741L233.954 85.64ZM229.538 86.152L229.88 86.5168L229.881 86.5161L229.538 86.152ZM228.014 88.584V101H229.014V88.584H228.014ZM228.514 101.5H245.474V100.5H228.514V101.5ZM244.974 101V118.664H245.974V101H244.974ZM245.474 118.164H228.514V119.164H245.474V118.164ZM228.014 118.664V165H229.014V118.664H228.014ZM228.514 164.5H210.85V165.5H228.514V164.5ZM211.35 165V118.664H210.35V165H211.35ZM210.85 118.164H204.45V119.164H210.85V118.164ZM204.95 118.664V101H203.95V118.664H204.95ZM204.45 101.5H210.85V100.5H204.45V101.5ZM211.35 101V88.584H210.35V101H211.35ZM211.35 88.584C211.35 84.7881 212.287 81.3588 214.157 78.2838L213.303 77.7642C211.333 81.0039 210.35 84.6146 210.35 88.584H211.35ZM214.159 78.2812C216.037 75.1516 218.538 72.6505 221.667 70.7727L221.153 69.9152C217.882 71.8775 215.263 74.4964 213.301 77.7667L214.159 78.2812ZM221.665 70.7742C224.828 68.9013 228.302 67.964 232.098 67.964V66.964C228.129 66.964 224.477 67.9467 221.155 69.9138L221.665 70.7742ZM232.098 67.964C234.885 67.964 237.634 68.5459 240.348 69.7152L240.744 68.7968C237.912 67.5768 235.028 66.964 232.098 66.964V67.964ZM240.354 69.7177C243.05 70.8377 245.464 72.6031 247.595 75.0262L248.345 74.3658C246.124 71.8395 243.588 69.9783 240.738 68.7942L240.354 69.7177ZM247.619 74.3398L234.947 86.8198L235.649 87.5322L248.321 75.0522L247.619 74.3398ZM235.756 86.9756C235.418 86.2031 234.901 85.605 234.202 85.2059L233.706 86.0741C234.202 86.3576 234.581 86.7835 234.84 87.3764L235.756 86.9756ZM234.202 85.2059C233.535 84.8247 232.832 84.628 232.098 84.628V85.628C232.644 85.628 233.178 85.7726 233.706 86.0741L234.202 85.2059ZM232.098 84.628C230.987 84.628 230.012 85.0194 229.195 85.7879L229.881 86.5161C230.515 85.9193 231.246 85.628 232.098 85.628V84.628ZM229.196 85.7872C228.407 86.5268 228.014 87.472 228.014 88.584H229.014C229.014 87.7333 229.304 87.0572 229.88 86.5168L229.196 85.7872ZM266.962 162.12L266.696 162.543L266.698 162.544L266.962 162.12ZM255.378 149.96L254.941 150.204L254.944 150.208L255.378 149.96ZM253.586 119.88L254.049 120.07L254.049 120.068L253.586 119.88ZM260.434 109.128L260.071 108.785L260.07 108.785L260.434 109.128ZM270.674 101.832L270.469 101.376L270.469 101.376L270.674 101.832ZM299.154 103.752L298.888 104.175L298.89 104.176L299.154 103.752ZM310.738 115.976L310.301 116.22L310.303 116.223L310.738 115.976ZM312.594 146.056L312.131 145.866L312.131 145.866L312.594 146.056ZM305.682 156.808L305.319 156.465L305.318 156.465L305.682 156.808ZM295.506 164.04L295.301 163.584L295.299 163.585L295.506 164.04ZM290.45 146.824L290.727 147.24L290.733 147.236L290.45 146.824ZM295.57 140.936L296.016 141.163L296.016 141.163L295.57 140.936ZM295.442 124.936L294.998 125.166L295.003 125.175L295.442 124.936ZM290.258 119.048L290.535 118.632L290.535 118.632L290.258 119.048ZM275.794 119.112L276.077 119.524L276.077 119.524L275.794 119.112ZM270.61 125L270.167 124.767L270.164 124.773L270.61 125ZM270.674 141.192L270.231 141.425L270.237 141.434L270.674 141.192ZM275.922 146.888L276.194 146.468L276.194 146.468L275.922 146.888ZM283.09 166.164C277.293 166.164 272.009 164.674 267.226 161.696L266.698 162.544C271.643 165.625 277.111 167.164 283.09 167.164V166.164ZM267.228 161.697C262.478 158.712 258.674 154.72 255.812 149.712L254.944 150.208C257.885 155.355 261.803 159.469 266.696 162.543L267.228 161.697ZM255.815 149.716C253 144.675 251.59 139.106 251.59 133H250.59C250.59 139.267 252.039 145.005 254.941 150.204L255.815 149.716ZM251.59 133C251.59 128.367 252.411 124.059 254.049 120.07L253.123 119.69C251.433 123.808 250.59 128.246 250.59 133H251.59ZM254.049 120.068C255.691 116.027 257.941 112.496 260.798 109.471L260.07 108.785C257.125 111.904 254.809 115.541 253.123 119.692L254.049 120.068ZM260.797 109.471C263.697 106.404 267.057 104.01 270.879 102.288L270.469 101.376C266.526 103.152 263.059 105.623 260.071 108.785L260.797 109.471ZM270.879 102.288C274.695 100.569 278.764 99.708 283.09 99.708V98.708C278.627 98.708 274.418 99.5968 270.469 101.376L270.879 102.288ZM283.09 99.708C288.887 99.708 294.149 101.198 298.888 104.175L299.42 103.329C294.516 100.247 289.069 98.708 283.09 98.708V99.708ZM298.89 104.176C303.68 107.16 307.483 111.172 310.301 116.22L311.175 115.732C308.276 110.54 304.356 106.403 299.418 103.328L298.89 104.176ZM310.303 116.223C313.159 121.263 314.59 126.852 314.59 133H315.59C315.59 126.69 314.119 120.929 311.173 115.729L310.303 116.223ZM314.59 133C314.59 137.59 313.769 141.877 312.131 145.866L313.057 146.246C314.747 142.129 315.59 137.712 315.59 133H314.59ZM312.131 145.866C310.49 149.864 308.219 153.396 305.319 156.465L306.045 157.151C309.033 153.991 311.37 150.355 313.057 146.246L312.131 145.866ZM305.318 156.465C302.462 159.489 299.124 161.861 295.301 163.584L295.711 164.496C299.653 162.72 303.099 160.271 306.046 157.151L305.318 156.465ZM295.299 163.585C291.527 165.303 287.46 166.164 283.09 166.164V167.164C287.595 167.164 291.805 166.276 295.713 164.495L295.299 163.585ZM283.09 149.5C285.915 149.5 288.465 148.748 290.727 147.24L290.173 146.408C288.083 147.801 285.727 148.5 283.09 148.5V149.5ZM290.733 147.236C292.98 145.694 294.742 143.667 296.016 141.163L295.124 140.709C293.924 143.069 292.272 144.967 290.167 146.412L290.733 147.236ZM296.016 141.163C297.29 138.657 297.926 135.934 297.926 133H296.926C296.926 135.784 296.324 138.351 295.124 140.709L296.016 141.163ZM297.926 133C297.926 129.978 297.246 127.207 295.881 124.697L295.003 125.175C296.283 127.529 296.926 130.134 296.926 133H297.926ZM295.886 124.706C294.57 122.161 292.786 120.133 290.535 118.632L289.981 119.464C292.082 120.865 293.754 122.761 294.998 125.166L295.886 124.706ZM290.535 118.632C288.278 117.127 285.792 116.372 283.09 116.372V117.372C285.593 117.372 287.886 118.068 289.981 119.464L290.535 118.632ZM283.09 116.372C280.303 116.372 277.772 117.148 275.511 118.7L276.077 119.524C278.168 118.089 280.501 117.372 283.09 117.372V116.372ZM275.511 118.7C273.265 120.241 271.484 122.266 270.168 124.767L271.052 125.233C272.296 122.87 273.971 120.97 276.077 119.524L275.511 118.7ZM270.164 124.773C268.889 127.28 268.254 130.025 268.254 133H269.254C269.254 130.172 269.856 127.584 271.056 125.227L270.164 124.773ZM268.254 133C268.254 136.102 268.91 138.914 270.232 141.425L271.116 140.959C269.878 138.606 269.254 135.957 269.254 133H268.254ZM270.237 141.434C271.597 143.891 273.402 145.853 275.65 147.308L276.194 146.468C274.09 145.107 272.396 143.271 271.111 140.95L270.237 141.434ZM275.65 147.308C277.908 148.768 280.391 149.5 283.09 149.5V148.5C280.583 148.5 278.288 147.824 276.194 146.468L275.65 147.308ZM324.869 165L324.369 165.001L324.37 165.5H324.869V165ZM324.805 101V100.5H324.305L324.305 101.001L324.805 101ZM342.469 101L342.969 100.993L342.962 100.5H342.469V101ZM342.533 105.736L342.033 105.743L342.049 106.894L342.879 106.097L342.533 105.736ZM350.021 100.936L349.836 100.471L349.834 100.472L350.021 100.936ZM366.213 100.232L366.679 100.414L366.878 99.9046L366.353 99.7519L366.213 100.232ZM359.237 118.088L359.045 118.55L359.517 118.746L359.703 118.27L359.237 118.088ZM348.485 118.728L348.234 118.296L348.234 118.296L348.485 118.728ZM344.133 123.08L344.563 123.336L344.565 123.331L344.133 123.08ZM342.533 165V165.5H343.033V165H342.533ZM325.369 164.999L325.305 100.999L324.305 101.001L324.369 165.001L325.369 164.999ZM324.805 101.5H342.469V100.5H324.805V101.5ZM341.969 101.007L342.033 105.743L343.033 105.729L342.969 100.993L341.969 101.007ZM342.879 106.097C344.965 104.095 347.406 102.529 350.208 101.4L349.834 100.472C346.919 101.647 344.368 103.281 342.187 105.375L342.879 106.097ZM350.206 101.401C353.047 100.273 356.035 99.708 359.173 99.708V98.708C355.911 98.708 352.798 99.2954 349.836 100.471L350.206 101.401ZM359.173 99.708C361.47 99.708 363.77 100.042 366.073 100.712L366.353 99.7519C363.963 99.0566 361.569 98.708 359.173 98.708V99.708ZM365.747 100.05L358.771 117.906L359.703 118.27L366.679 100.414L365.747 100.05ZM359.429 117.626C357.836 116.962 356.213 116.628 354.565 116.628V117.628C356.074 117.628 357.566 117.934 359.045 118.55L359.429 117.626ZM354.565 116.628C352.262 116.628 350.148 117.183 348.234 118.296L348.736 119.16C350.491 118.14 352.43 117.628 354.565 117.628V116.628ZM348.234 118.296C346.324 119.406 344.811 120.919 343.701 122.829L344.565 123.331C345.588 121.572 346.977 120.183 348.736 119.16L348.234 118.296ZM343.703 122.824C342.587 124.7 342.033 126.816 342.033 129.16H343.033C343.033 126.981 343.546 125.044 344.563 123.336L343.703 122.824ZM342.033 129.16V165H343.033V129.16H342.033ZM342.533 164.5H324.869V165.5H342.533V164.5ZM373.43 165H372.93V165.5H373.43V165ZM373.43 101V100.5H372.93V101H373.43ZM391.094 101H391.594V100.5H391.094V101ZM391.094 105.736H390.594V106.893L391.437 106.1L391.094 105.736ZM398.646 100.936L398.459 100.472L398.459 100.472L398.646 100.936ZM419.702 102.216L419.46 102.654L419.462 102.655L419.702 102.216ZM428.534 110.216L428.118 110.493L428.53 111.111L428.948 110.497L428.534 110.216ZM437.366 102.216L437.124 101.778L437.124 101.778L437.366 102.216ZM461.878 102.6L461.62 103.028L461.622 103.03L461.878 102.6ZM470.966 111.688L470.536 111.944L470.538 111.946L470.966 111.688ZM474.358 165V165.5H474.858V165H474.358ZM456.694 165H456.194V165.5H456.694V165ZM455.03 123.144L454.598 123.395L454.605 123.407L455.03 123.144ZM450.742 118.792L450.479 119.217L450.486 119.222L450.742 118.792ZM438.646 118.728L438.395 118.296L438.39 118.298L438.646 118.728ZM434.294 123.08L433.866 122.821L433.864 122.824L434.294 123.08ZM432.694 165V165.5H433.194V165H432.694ZM415.03 165H414.53V165.5H415.03V165ZM413.43 123.08L412.998 123.331L413 123.336L413.43 123.08ZM409.078 118.728L408.822 119.158L408.827 119.16L409.078 118.728ZM397.046 118.792L397.302 119.222L397.305 119.22L397.046 118.792ZM392.694 123.144L392.266 122.885L392.264 122.888L392.694 123.144ZM391.094 165V165.5H391.594V165H391.094ZM373.93 165V101H372.93V165H373.93ZM373.43 101.5H391.094V100.5H373.43V101.5ZM390.594 101V105.736H391.594V101H390.594ZM391.437 106.1C393.566 104.096 396.03 102.529 398.833 101.4L398.459 100.472C395.545 101.647 392.974 103.28 390.751 105.372L391.437 106.1ZM398.833 101.4C401.63 100.273 404.596 99.708 407.734 99.708V98.708C404.472 98.708 401.379 99.2954 398.459 100.472L398.833 101.4ZM407.734 99.708C412.006 99.708 415.911 100.691 419.46 102.654L419.944 101.778C416.239 99.7301 412.166 98.708 407.734 98.708V99.708ZM419.462 102.655C423.064 104.623 425.946 107.236 428.118 110.493L428.95 109.939C426.684 106.54 423.679 103.82 419.942 101.777L419.462 102.655ZM428.948 110.497C431.163 107.236 434.048 104.622 437.608 102.654L437.124 101.778C433.431 103.821 430.427 106.54 428.12 109.935L428.948 110.497ZM437.608 102.654C441.158 100.691 445.042 99.708 449.27 99.708V98.708C444.88 98.708 440.828 99.7305 437.124 101.778L437.608 102.654ZM449.27 99.708C453.836 99.708 457.948 100.817 461.62 103.028L462.136 102.172C458.299 99.8606 454.006 98.708 449.27 98.708V99.708ZM461.622 103.03C465.348 105.248 468.318 108.218 470.536 111.944L471.396 111.432C469.092 107.563 466.003 104.474 462.134 102.17L461.622 103.03ZM470.538 111.946C472.749 115.618 473.858 119.73 473.858 124.296H474.858C474.858 119.56 473.705 115.267 471.394 111.43L470.538 111.946ZM473.858 124.296V165H474.858V124.296H473.858ZM474.358 164.5H456.694V165.5H474.358V164.5ZM457.194 165V129.16H456.194V165H457.194ZM457.194 129.16C457.194 126.853 456.616 124.756 455.455 122.881L454.605 123.407C455.663 125.116 456.194 127.029 456.194 129.16H457.194ZM455.462 122.893C454.354 120.986 452.864 119.473 450.998 118.362L450.486 119.222C452.204 120.244 453.573 121.633 454.598 123.395L455.462 122.893ZM451.005 118.367C449.13 117.206 447.033 116.628 444.726 116.628V117.628C446.857 117.628 448.77 118.159 450.479 119.217L451.005 118.367ZM444.726 116.628C442.423 116.628 440.309 117.183 438.395 118.296L438.897 119.16C440.652 118.14 442.591 117.628 444.726 117.628V116.628ZM438.39 118.298C436.526 119.408 435.017 120.918 433.866 122.821L434.722 123.339C435.79 121.572 437.182 120.181 438.902 119.158L438.39 118.298ZM433.864 122.824C432.748 124.7 432.194 126.816 432.194 129.16H433.194C433.194 126.981 433.707 125.044 434.724 123.336L433.864 122.824ZM432.194 129.16V165H433.194V129.16H432.194ZM432.694 164.5H415.03V165.5H432.694V164.5ZM415.53 165V129.16H414.53V165H415.53ZM415.53 129.16C415.53 126.816 414.976 124.7 413.86 122.824L413 123.336C414.017 125.044 414.53 126.981 414.53 129.16H415.53ZM413.862 122.829C412.752 120.919 411.239 119.406 409.329 118.296L408.827 119.16C410.586 120.183 411.975 121.572 412.998 123.331L413.862 122.829ZM409.334 118.298C407.459 117.183 405.365 116.628 403.062 116.628V117.628C405.197 117.628 407.113 118.14 408.822 119.158L409.334 118.298ZM403.062 116.628C400.796 116.628 398.701 117.207 396.787 118.364L397.305 119.22C399.06 118.158 400.976 117.628 403.062 117.628V116.628ZM396.79 118.362C394.926 119.472 393.417 120.982 392.266 122.885L393.122 123.403C394.19 121.636 395.582 120.245 397.302 119.222L396.79 118.362ZM392.264 122.888C391.149 124.763 390.594 126.857 390.594 129.16H391.594C391.594 127.025 392.106 125.109 393.124 123.4L392.264 122.888ZM390.594 129.16V165H391.594V129.16H390.594ZM391.094 164.5H373.43V165.5H391.094V164.5ZM497.962 162.12L497.696 162.543L497.698 162.544L497.962 162.12ZM486.378 149.896L485.941 150.14L485.943 150.143L486.378 149.896ZM484.586 119.88L485.049 120.07L485.049 120.068L484.586 119.88ZM491.434 109.128L491.071 108.785L491.07 108.785L491.434 109.128ZM501.674 101.832L501.469 101.376L501.469 101.376L501.674 101.832ZM527.978 102.472L527.747 102.916L527.749 102.916L527.978 102.472ZM538.666 111.368L538.27 111.674L538.273 111.677L538.666 111.368ZM544.938 124.104L544.454 124.23L544.455 124.234L544.938 124.104ZM545.578 138.888V139.388H546.002L546.071 138.97L545.578 138.888ZM501.162 138.888V138.388H500.493L500.682 139.03L501.162 138.888ZM503.722 144.008L503.322 144.308L503.327 144.314L503.332 144.32L503.722 144.008ZM508.074 147.592L507.842 148.035L507.846 148.037L508.074 147.592ZM514.09 149L514.1 148.5L514.099 148.5L514.09 149ZM520.234 147.464L519.987 147.029L519.987 147.029L520.234 147.464ZM525.034 143.176L525.146 142.689L524.827 142.615L524.632 142.879L525.034 143.176ZM543.082 147.336L543.536 147.544L543.792 146.987L543.194 146.849L543.082 147.336ZM531.434 161.288L531.719 161.699L531.721 161.697L531.434 161.288ZM500.522 125.832L500.04 125.7L499.866 126.332H500.522V125.832ZM527.722 125.832V126.332H528.369L528.206 125.706L527.722 125.832ZM524.906 120.072L524.511 120.378L524.511 120.378L524.906 120.072ZM520.106 116.04L519.87 116.481L519.874 116.483L520.106 116.04ZM508.074 116.04L507.842 115.597L507.838 115.599L508.074 116.04ZM503.338 120.072L502.943 119.766L502.942 119.767L503.338 120.072ZM514.09 166.164C508.293 166.164 503.009 164.674 498.226 161.696L497.698 162.544C502.643 165.625 508.111 167.164 514.09 167.164V166.164ZM498.228 161.697C493.479 158.713 489.675 154.7 486.813 149.649L485.943 150.143C488.884 155.332 492.802 159.468 497.696 162.543L498.228 161.697ZM486.815 149.652C484 144.611 482.59 139.042 482.59 132.936H481.59C481.59 139.203 483.039 144.941 485.941 150.14L486.815 149.652ZM482.59 132.936C482.59 128.346 483.411 124.059 485.049 120.07L484.123 119.69C482.433 123.807 481.59 128.224 481.59 132.936H482.59ZM485.049 120.068C486.691 116.027 488.941 112.496 491.798 109.471L491.07 108.785C488.125 111.904 485.809 115.541 484.123 119.692L485.049 120.068ZM491.797 109.471C494.697 106.404 498.057 104.01 501.879 102.288L501.469 101.376C497.526 103.152 494.059 105.623 491.071 108.785L491.797 109.471ZM501.879 102.288C505.695 100.569 509.764 99.708 514.09 99.708V98.708C509.627 98.708 505.418 99.5968 501.469 101.376L501.879 102.288ZM514.09 99.708C519.093 99.708 523.643 100.779 527.747 102.916L528.209 102.028C523.951 99.8125 519.241 98.708 514.09 98.708V99.708ZM527.749 102.916C531.908 105.059 535.414 107.977 538.27 111.674L539.062 111.062C536.116 107.25 532.496 104.237 528.207 102.028L527.749 102.916ZM538.273 111.677C541.173 115.376 543.234 119.559 544.454 124.23L545.422 123.978C544.168 119.177 542.047 114.869 539.059 111.059L538.273 111.677ZM544.455 124.234C545.716 128.897 545.927 133.752 545.085 138.806L546.071 138.97C546.936 133.784 546.72 128.783 545.421 123.974L544.455 124.234ZM545.578 138.388H501.162V139.388H545.578V138.388ZM500.682 139.03C501.254 140.963 502.134 142.723 503.322 144.308L504.122 143.708C503.006 142.221 502.18 140.568 501.642 138.746L500.682 139.03ZM503.332 144.32C504.57 145.868 506.074 147.107 507.842 148.035L508.306 147.149C506.66 146.285 505.264 145.135 504.112 143.696L503.332 144.32ZM507.846 148.037C509.673 148.973 511.755 149.456 514.081 149.5L514.099 148.5C511.903 148.459 509.974 148.003 508.302 147.147L507.846 148.037ZM514.08 149.5C516.386 149.544 518.523 149.011 520.481 147.899L519.987 147.029C518.19 148.05 516.231 148.541 514.1 148.5L514.08 149.5ZM520.481 147.899C522.421 146.796 524.073 145.319 525.436 143.473L524.632 142.879C523.349 144.617 521.802 145.998 519.987 147.029L520.481 147.899ZM524.922 143.663L542.97 147.823L543.194 146.849L525.146 142.689L524.922 143.663ZM542.628 147.128C540.062 152.721 536.238 157.303 531.147 160.879L531.721 161.697C536.956 158.02 540.896 153.301 543.536 147.544L542.628 147.128ZM531.149 160.877C526.072 164.402 520.39 166.164 514.09 166.164V167.164C520.59 167.164 526.471 165.342 531.719 161.699L531.149 160.877ZM500.522 126.332H527.722V125.332H500.522V126.332ZM528.206 125.706C527.635 123.509 526.666 121.527 525.301 119.766L524.511 120.378C525.791 122.03 526.7 123.889 527.238 125.958L528.206 125.706ZM525.301 119.766C523.935 118.003 522.28 116.612 520.338 115.597L519.874 116.483C521.687 117.43 523.231 118.727 524.511 120.378L525.301 119.766ZM520.342 115.599C518.431 114.577 516.344 114.068 514.09 114.068V115.068C516.188 115.068 518.111 115.54 519.87 116.481L520.342 115.599ZM514.09 114.068C511.877 114.068 509.792 114.578 507.842 115.597L508.306 116.483C510.111 115.539 512.037 115.068 514.09 115.068V114.068ZM507.838 115.599C505.939 116.615 504.307 118.006 502.943 119.766L503.733 120.378C505.014 118.725 506.54 117.428 508.31 116.481L507.838 115.599ZM502.942 119.767C501.619 121.486 500.653 123.466 500.04 125.7L501.004 125.964C501.586 123.846 502.497 121.986 503.734 120.377L502.942 119.767ZM568.337 162.12L568.071 162.543L568.073 162.544L568.337 162.12ZM556.753 149.896L556.316 150.14L556.318 150.143L556.753 149.896ZM554.961 119.88L555.424 120.07L555.424 120.068L554.961 119.88ZM561.809 109.128L561.446 108.785L561.445 108.785L561.809 109.128ZM572.049 101.832L571.844 101.376L571.844 101.376L572.049 101.832ZM598.353 102.472L598.122 102.916L598.124 102.916L598.353 102.472ZM609.041 111.368L608.645 111.674L608.648 111.677L609.041 111.368ZM615.313 124.104L614.829 124.23L614.83 124.234L615.313 124.104ZM615.953 138.888V139.388H616.377L616.446 138.97L615.953 138.888ZM571.537 138.888V138.388H570.868L571.057 139.03L571.537 138.888ZM574.097 144.008L573.697 144.308L573.702 144.314L573.707 144.32L574.097 144.008ZM578.449 147.592L578.217 148.035L578.221 148.037L578.449 147.592ZM584.465 149L584.475 148.5L584.474 148.5L584.465 149ZM590.609 147.464L590.362 147.029L590.362 147.029L590.609 147.464ZM595.409 143.176L595.521 142.689L595.202 142.615L595.007 142.879L595.409 143.176ZM613.457 147.336L613.911 147.544L614.167 146.987L613.569 146.849L613.457 147.336ZM601.809 161.288L602.094 161.699L602.096 161.697L601.809 161.288ZM570.897 125.832L570.415 125.7L570.241 126.332H570.897V125.832ZM598.097 125.832V126.332H598.744L598.581 125.706L598.097 125.832ZM595.281 120.072L594.886 120.378L594.886 120.378L595.281 120.072ZM590.481 116.04L590.245 116.481L590.249 116.483L590.481 116.04ZM578.449 116.04L578.217 115.597L578.213 115.599L578.449 116.04ZM573.713 120.072L573.318 119.766L573.317 119.767L573.713 120.072ZM584.465 166.164C578.668 166.164 573.384 164.674 568.601 161.696L568.073 162.544C573.018 165.625 578.486 167.164 584.465 167.164V166.164ZM568.603 161.697C563.854 158.713 560.05 154.7 557.188 149.649L556.318 150.143C559.259 155.332 563.177 159.468 568.071 162.543L568.603 161.697ZM557.19 149.652C554.375 144.611 552.965 139.042 552.965 132.936H551.965C551.965 139.203 553.414 144.941 556.316 150.14L557.19 149.652ZM552.965 132.936C552.965 128.346 553.786 124.059 555.424 120.07L554.498 119.69C552.808 123.807 551.965 128.224 551.965 132.936H552.965ZM555.424 120.068C557.066 116.027 559.316 112.496 562.173 109.471L561.445 108.785C558.5 111.904 556.184 115.541 554.498 119.692L555.424 120.068ZM562.172 109.471C565.072 106.404 568.432 104.01 572.254 102.288L571.844 101.376C567.901 103.152 564.434 105.623 561.446 108.785L562.172 109.471ZM572.254 102.288C576.07 100.569 580.139 99.708 584.465 99.708V98.708C580.002 98.708 575.793 99.5968 571.844 101.376L572.254 102.288ZM584.465 99.708C589.468 99.708 594.018 100.779 598.122 102.916L598.584 102.028C594.326 99.8125 589.616 98.708 584.465 98.708V99.708ZM598.124 102.916C602.283 105.059 605.789 107.977 608.645 111.674L609.437 111.062C606.491 107.25 602.871 104.237 598.582 102.028L598.124 102.916ZM608.648 111.677C611.548 115.376 613.609 119.559 614.829 124.23L615.797 123.978C614.543 119.177 612.422 114.869 609.434 111.059L608.648 111.677ZM614.83 124.234C616.091 128.897 616.302 133.752 615.46 138.806L616.446 138.97C617.311 133.784 617.095 128.783 615.796 123.974L614.83 124.234ZM615.953 138.388H571.537V139.388H615.953V138.388ZM571.057 139.03C571.629 140.963 572.509 142.723 573.697 144.308L574.497 143.708C573.381 142.221 572.555 140.568 572.017 138.746L571.057 139.03ZM573.707 144.32C574.945 145.868 576.449 147.107 578.217 148.035L578.681 147.149C577.035 146.285 575.639 145.135 574.487 143.696L573.707 144.32ZM578.221 148.037C580.048 148.973 582.13 149.456 584.456 149.5L584.474 148.5C582.278 148.459 580.349 148.003 578.677 147.147L578.221 148.037ZM584.455 149.5C586.761 149.544 588.898 149.011 590.856 147.899L590.362 147.029C588.565 148.05 586.606 148.541 584.475 148.5L584.455 149.5ZM590.856 147.899C592.796 146.796 594.448 145.319 595.811 143.473L595.007 142.879C593.724 144.617 592.177 145.998 590.362 147.029L590.856 147.899ZM595.297 143.663L613.345 147.823L613.569 146.849L595.521 142.689L595.297 143.663ZM613.003 147.128C610.437 152.721 606.613 157.303 601.522 160.879L602.096 161.697C607.331 158.02 611.271 153.301 613.911 147.544L613.003 147.128ZM601.524 160.877C596.447 164.402 590.765 166.164 584.465 166.164V167.164C590.965 167.164 596.846 165.342 602.094 161.699L601.524 160.877ZM570.897 126.332H598.097V125.332H570.897V126.332ZM598.581 125.706C598.01 123.509 597.041 121.527 595.676 119.766L594.886 120.378C596.166 122.03 597.075 123.889 597.613 125.958L598.581 125.706ZM595.676 119.766C594.31 118.003 592.655 116.612 590.713 115.597L590.249 116.483C592.062 117.43 593.606 118.727 594.886 120.378L595.676 119.766ZM590.717 115.599C588.806 114.577 586.719 114.068 584.465 114.068V115.068C586.563 115.068 588.486 115.54 590.245 116.481L590.717 115.599ZM584.465 114.068C582.252 114.068 580.167 114.578 578.217 115.597L578.681 116.483C580.486 115.539 582.412 115.068 584.465 115.068V114.068ZM578.213 115.599C576.314 116.615 574.682 118.006 573.318 119.766L574.108 120.378C575.389 118.725 576.915 117.428 578.685 116.481L578.213 115.599ZM573.317 119.767C571.994 121.486 571.028 123.466 570.415 125.7L571.379 125.964C571.961 123.846 572.872 121.986 574.109 120.377L573.317 119.767Z" fill="black"/>
</svg>
