<svg width="46" height="80" viewBox="0 0 46 80" fill="none" xmlns="http://www.w3.org/2000/svg">
<path d="M17.166 54.6667C17.166 49.0417 17.6695 44.9965 18.6764 42.5312C19.6834 40.066 21.8188 37.375 25.0827 34.4583C27.9299 31.9583 30.1 29.7882 31.5931 27.9479C33.0862 26.1076 33.8327 24.0069 33.8327 21.6458C33.8327 18.7986 32.8778 16.4375 30.9681 14.5625C29.0584 12.6875 26.4021 11.75 22.9993 11.75C19.4577 11.75 16.7667 12.8264 14.9264 14.9792C13.0862 17.1319 11.7841 19.3194 11.0202 21.5417L0.291016 16.9583C1.74935 12.5139 4.42296 8.65972 8.31185 5.39583C12.2007 2.13194 17.0966 0.5 22.9993 0.5C30.291 0.5 35.8987 2.53125 39.8223 6.59375C43.7459 10.6562 45.7077 15.5347 45.7077 21.2292C45.7077 24.7014 44.9612 27.6701 43.4681 30.1354C41.975 32.6007 39.6313 35.3958 36.4369 38.5208C33.0341 41.7847 30.9681 44.2674 30.2389 45.9688C29.5098 47.6701 29.1452 50.5694 29.1452 54.6667H17.166ZM22.9993 79.6667C20.7077 79.6667 18.7459 78.8507 17.1139 77.2188C15.482 75.5868 14.666 73.625 14.666 71.3333C14.666 69.0417 15.482 67.0799 17.1139 65.4479C18.7459 63.816 20.7077 63 22.9993 63C25.291 63 27.2528 63.816 28.8848 65.4479C30.5167 67.0799 31.3327 69.0417 31.3327 71.3333C31.3327 73.625 30.5167 75.5868 28.8848 77.2188C27.2528 78.8507 25.291 79.6667 22.9993 79.6667Z" fill="#E8EAED"/>
</svg>
