<svg width="1920" height="1080" viewBox="0 0 1920 1080" fill="none" xmlns="http://www.w3.org/2000/svg">
<path d="M0 876.603V1080H884.235C909.43 1079.96 915.041 1071.63 934.451 1059.16L1013.05 1006.29C1082.17 955.676 1148.48 896.474 1172.69 820.803C1189.42 768.514 1185.64 714.155 1185.53 660.605L1183.35 633.606C1182.6 580.938 1177.87 511.063 1210.29 464.408C1240.44 420.992 1302.4 400.167 1358.01 387.009C1481.21 357.849 1555.38 361.017 1696.42 318.034C1763.21 297.694 1842.4 263.314 1903.83 233.291L1945.32 213.167C1950.64 210.629 1959.55 207.155 1962.74 202.817C1965.45 199.145 1964.97 193.241 1964.97 189.011V0.0135518H1080.73C1076.17 0.0135518 1069.68 -0.202801 1065.45 1.09341C1058.94 3.07348 1036.61 20.3353 1030.52 25.2311L942.988 99.0123C878.187 156.468 820.243 220.205 795.048 297.01C762.691 395.649 775.9 501.865 725.16 595.806C689.791 661.271 612.065 718.457 539.274 755.662C417.687 817.797 282.562 847.443 141.914 862.707L37.1161 873.291L0 876.603Z" fill="#EA580C" fill-opacity="0.7"/>
</svg>
