<svg width="1920" height="1080" viewBox="0 0 1920 1080" fill="none" xmlns="http://www.w3.org/2000/svg">
<path d="M992.839 0.000276717L997.344 55.8001L999.597 82.8001C999.699 142.848 997.862 207.18 946.805 255.6C923.765 277.47 897.887 288.594 866.717 301.05C795.164 329.634 693.657 349.056 637.082 394.272C596.79 426.456 586.137 469.548 580.326 513L576.182 549L573.929 581.4L571.881 606.6C568.818 642.222 565.575 683.622 536.724 712.8C503.752 746.154 443.032 751.644 393.754 754.362L366.728 756.072H332.945L305.918 757.8C231.415 757.882 156.687 764.208 87.4543 787.896C24.2124 809.532 -1.80064 823.572 -58.939 852.156C-68.1054 856.746 -99.0283 871.848 -102.632 878.724C-104.254 881.838 -103.983 887.562 -103.983 891V1080H808.16C833.519 1079.95 837.889 1073.21 857.708 1061.33L907.257 1030.93C974.665 987.084 1038.4 939.78 1058.4 869.4C1063.51 851.418 1062.93 833.706 1062.66 815.4L1058.49 784.8L1026.24 633.6L1024.37 617.4C1024.1 597.168 1028.81 574.164 1040.86 556.2C1061.1 526.032 1101.31 506.322 1139.23 492.66C1228.56 460.44 1354.05 445.23 1452.29 422.748C1595.42 389.97 1700.96 335.592 1819.4 265.266L1893.72 221.166C1913.61 209.25 1922.95 208.818 1923 189V0L992.839 0.000276717Z" fill="#FB923C" fill-opacity="0.5"/>
</svg>
